<?xml version="1.0" encoding="UTF-8" standalone="no"?>
<!-- Created with Inkscape (http://www.inkscape.org/) -->

<svg
   xmlns:dc="http://purl.org/dc/elements/1.1/"
   xmlns:cc="http://creativecommons.org/ns#"
   xmlns:rdf="http://www.w3.org/1999/02/22-rdf-syntax-ns#"
   xmlns:svg="http://www.w3.org/2000/svg"
   xmlns="http://www.w3.org/2000/svg"
   xmlns:sodipodi="http://sodipodi.sourceforge.net/DTD/sodipodi-0.dtd"
   xmlns:inkscape="http://www.inkscape.org/namespaces/inkscape"
   version="1.1"
   id="svg4485"
   xml:space="preserve"
   width="960"
   height="540"
   viewBox="0 0 400 380"
   sodipodi:docname="03_ustrukturert_basic.svg"
   inkscape:version="0.92.1 r15371"><metadata
     id="metadata4491"><rdf:RDF><cc:Work
         rdf:about=""><dc:format>image/svg+xml</dc:format><dc:type
           rdf:resource="http://purl.org/dc/dcmitype/StillImage" /><dc:title></dc:title></cc:Work></rdf:RDF></metadata><defs
     id="defs4489"><clipPath
       clipPathUnits="userSpaceOnUse"
       id="clipPath4503"><path
         d="M 0,0 H 365760 V 205740 H 0 Z"
         id="path4501"
         inkscape:connector-curvature="0" /></clipPath></defs><sodipodi:namedview
     pagecolor="#ffffff"
     bordercolor="#666666"
     borderopacity="1"
     objecttolerance="10"
     gridtolerance="10"
     guidetolerance="10"
     inkscape:pageopacity="0"
     inkscape:pageshadow="2"
     inkscape:window-width="1920"
     inkscape:window-height="1017"
     id="namedview4487"
     showgrid="false"
     inkscape:zoom="1.4791667"
     inkscape:cx="480"
     inkscape:cy="270"
     inkscape:window-x="-8"
     inkscape:window-y="-8"
     inkscape:window-maximized="1"
     inkscape:current-layer="g4493" /><g
     id="g4493"
     inkscape:groupmode="layer"
     inkscape:label="Ustrukturert Basic (4)"
     transform="matrix(1.3333333,0,0,-1.3333333,0,540)"><g
       id="g4511"
       transform="matrix(0.0019685,0,0,-0.0019685,-46.140846,422.74648)"><g
         id="g4513"><g
           id="g4515"><path
             inkscape:connector-curvature="0"
             id="path4517"
             style="fill:#000000;fill-opacity:0;fill-rule:evenodd;stroke:none"
             d="m 34854,13699.046 v 0 C 34854,12439.812 35874.812,11419 37134.047,11419 H 97061.95 c 604.71,0 1184.65,240.219 1612.24,667.81 427.59,427.591 667.81,1007.53 667.81,1612.236 v 9119.909 C 99342,24078.19 98321.19,25099 97061.95,25099 H 37134.047 C 35874.812,25099 34854,24078.19 34854,22818.955 Z" /></g></g><path
         inkscape:connector-curvature="0"
         id="path4519"
         style="fill:none;stroke:#595959;stroke-width:381;stroke-linecap:butt;stroke-linejoin:round;stroke-miterlimit:8;stroke-dasharray:none;stroke-opacity:1"
         d="m 34854,13699.046 v 0 C 34854,12439.812 35874.812,11419 37134.047,11419 H 97061.95 c 604.71,0 1184.65,240.219 1612.24,667.81 427.59,427.591 667.81,1007.53 667.81,1612.236 v 9119.909 C 99342,24078.19 98321.19,25099 97061.95,25099 H 37134.047 C 35874.812,25099 34854,24078.19 34854,22818.955 Z" /></g><g
       transform="matrix(0.7499985,0,0,-0.7499985,-46.140846,422.74648)"
       id="g4521"><g
         transform="translate(93.23308,31.72389)"
         id="g4523"><g
           id="g4525"><text
             id="text4529"
             style="font-variant:normal;font-weight:normal;font-size:18.66666603px;font-family:'Courier New';-inkscape-font-specification:CourierNew;writing-mode:lr-tb;fill:#000000;fill-opacity:1;fill-rule:nonzero;stroke:none"
             transform="translate(9,23.119991)"><tspan
               id="tspan4527"
               sodipodi:role="line"
               y="0"
               x="0 11.2 22.4 33.599998 44.799999 55.999996 67.199997 78.399994 89.599998 100.8">10 GOTO 60</tspan></text>
</g></g></g><g
       transform="matrix(0.7499985,0,0,-0.7499985,-46.140846,422.74648)"
       id="g4531" /><g
       id="g4533"
       transform="matrix(0.0019685,0,0,-0.0019685,-46.140846,422.74648)"><g
         id="g4535"><g
           id="g4537"><path
             inkscape:connector-curvature="0"
             id="path4539"
             style="fill:#000000;fill-opacity:0;fill-rule:evenodd;stroke:none"
             d="m 34854,31987.045 v 0 C 34854,30727.81 35874.812,29707 37134.047,29707 H 97061.95 c 604.71,0 1184.65,240.219 1612.24,667.81 427.59,427.592 667.81,1007.53 667.81,1612.235 v 9119.908 C 99342,42366.188 98321.19,43387 97061.95,43387 H 37134.047 C 35874.812,43387 34854,42366.188 34854,41106.953 Z" /></g></g><path
         inkscape:connector-curvature="0"
         id="path4541"
         style="fill:none;stroke:#595959;stroke-width:381;stroke-linecap:butt;stroke-linejoin:round;stroke-miterlimit:8;stroke-dasharray:none;stroke-opacity:1"
         d="m 34854,31987.045 v 0 C 34854,30727.81 35874.812,29707 37134.047,29707 H 97061.95 c 604.71,0 1184.65,240.219 1612.24,667.81 427.59,427.592 667.81,1007.53 667.81,1612.235 v 9119.908 C 99342,42366.188 98321.19,43387 97061.95,43387 H 37134.047 C 35874.812,43387 34854,42366.188 34854,41106.953 Z" /></g><g
       transform="matrix(0.7499985,0,0,-0.7499985,-46.140846,422.74648)"
       id="g4543"><g
         transform="translate(93.23308,79.72389)"
         id="g4545"><g
           id="g4547"><text
             id="text4551"
             style="font-variant:normal;font-weight:normal;font-size:18.66666603px;font-family:'Courier New';-inkscape-font-specification:CourierNew;writing-mode:lr-tb;fill:#000000;fill-opacity:1;fill-rule:nonzero;stroke:none"
             transform="translate(9,23.119991)"><tspan
               id="tspan4549"
               sodipodi:role="line"
               y="0"
               x="0 11.2 22.4 33.599998 44.799999 55.999996 67.199997 78.399994 89.599998 100.8 111.99999 123.2">20 PRINT &quot;C&quot;</tspan></text>
</g></g></g><g
       transform="matrix(0.7499985,0,0,-0.7499985,-46.140846,422.74648)"
       id="g4553" /><g
       id="g4555"
       transform="matrix(0.0019685,0,0,-0.0019685,-46.140846,422.74648)"><g
         id="g4557"><g
           id="g4559"><path
             inkscape:connector-curvature="0"
             id="path4561"
             style="fill:#000000;fill-opacity:0;fill-rule:evenodd;stroke:none"
             d="m 34854,50275.047 v 0 C 34854,49015.812 35874.812,47995 37134.047,47995 H 97061.95 c 604.71,0 1184.65,240.22 1612.24,667.81 427.59,427.592 667.81,1007.53 667.81,1612.237 v 9119.906 C 99342,60654.188 98321.19,61675 97061.95,61675 H 37134.047 C 35874.812,61675 34854,60654.188 34854,59394.953 Z" /></g></g><path
         inkscape:connector-curvature="0"
         id="path4563"
         style="fill:none;stroke:#595959;stroke-width:381;stroke-linecap:butt;stroke-linejoin:round;stroke-miterlimit:8;stroke-dasharray:none;stroke-opacity:1"
         d="m 34854,50275.047 v 0 C 34854,49015.812 35874.812,47995 37134.047,47995 H 97061.95 c 604.71,0 1184.65,240.22 1612.24,667.81 427.59,427.592 667.81,1007.53 667.81,1612.237 v 9119.906 C 99342,60654.188 98321.19,61675 97061.95,61675 H 37134.047 C 35874.812,61675 34854,60654.188 34854,59394.953 Z" /></g><g
       transform="matrix(0.7499985,0,0,-0.7499985,-46.140846,422.74648)"
       id="g4565"><g
         transform="translate(93.23308,127.72389)"
         id="g4567"><g
           id="g4569"><text
             id="text4573"
             style="font-variant:normal;font-weight:normal;font-size:18.66666603px;font-family:'Courier New';-inkscape-font-specification:CourierNew;writing-mode:lr-tb;fill:#000000;fill-opacity:1;fill-rule:nonzero;stroke:none"
             transform="translate(9,23.119991)"><tspan
               id="tspan4571"
               sodipodi:role="line"
               y="0"
               x="0 11.2 22.4 33.599998 44.799999 55.999996 67.199997 78.399994 89.599998 100.8">30 GOTO 80</tspan></text>
</g></g></g><g
       transform="matrix(0.7499985,0,0,-0.7499985,-46.140846,422.74648)"
       id="g4575" /><g
       id="g4577"
       transform="matrix(0.0019685,0,0,-0.0019685,-46.140846,422.74648)"><g
         id="g4579"><g
           id="g4581"><path
             inkscape:connector-curvature="0"
             id="path4583"
             style="fill:#000000;fill-opacity:0;fill-rule:evenodd;stroke:none"
             d="m 34854,68563.05 v 0 C 34854,67303.81 35874.812,66283 37134.047,66283 H 97061.95 c 604.71,0 1184.65,240.22 1612.24,667.81 427.59,427.59 667.81,1007.53 667.81,1612.24 v 9119.9 c 0,1259.24 -1020.81,2280.05 -2280.05,2280.05 H 37134.047 C 35874.812,79963 34854,78942.19 34854,77682.95 Z" /></g></g><path
         inkscape:connector-curvature="0"
         id="path4585"
         style="fill:none;stroke:#595959;stroke-width:381;stroke-linecap:butt;stroke-linejoin:round;stroke-miterlimit:8;stroke-dasharray:none;stroke-opacity:1"
         d="m 34854,68563.05 v 0 C 34854,67303.81 35874.812,66283 37134.047,66283 H 97061.95 c 604.71,0 1184.65,240.22 1612.24,667.81 427.59,427.59 667.81,1007.53 667.81,1612.24 v 9119.9 c 0,1259.24 -1020.81,2280.05 -2280.05,2280.05 H 37134.047 C 35874.812,79963 34854,78942.19 34854,77682.95 Z" /></g><g
       transform="matrix(0.7499985,0,0,-0.7499985,-46.140846,422.74648)"
       id="g4587"><g
         transform="translate(93.23308,175.72389)"
         id="g4589"><g
           id="g4591"><text
             id="text4595"
             style="font-variant:normal;font-weight:normal;font-size:18.66666603px;font-family:'Courier New';-inkscape-font-specification:CourierNew;writing-mode:lr-tb;fill:#000000;fill-opacity:1;fill-rule:nonzero;stroke:none"
             transform="translate(9,23.119991)"><tspan
               id="tspan4593"
               sodipodi:role="line"
               y="0"
               x="0 11.2 22.4 33.599998 44.799999 55.999996 67.199997 78.399994 89.599998 100.8 111.99999 123.2">40 PRINT &quot;B&quot;</tspan></text>
</g></g></g><g
       transform="matrix(0.7499985,0,0,-0.7499985,-46.140846,422.74648)"
       id="g4597" /><g
       id="g4599"
       transform="matrix(0.0019685,0,0,-0.0019685,-46.140846,422.74648)"><g
         id="g4601"><g
           id="g4603"><path
             inkscape:connector-curvature="0"
             id="path4605"
             style="fill:#000000;fill-opacity:0;fill-rule:evenodd;stroke:none"
             d="m 34854,86851.05 v 0 C 34854,85591.81 35874.812,84571 37134.047,84571 H 97061.95 c 604.71,0 1184.65,240.22 1612.24,667.81 427.59,427.59 667.81,1007.53 667.81,1612.24 v 9119.9 c 0,1259.24 -1020.81,2280.05 -2280.05,2280.05 H 37134.047 C 35874.812,98251 34854,97230.19 34854,95970.95 Z" /></g></g><path
         inkscape:connector-curvature="0"
         id="path4607"
         style="fill:none;stroke:#595959;stroke-width:381;stroke-linecap:butt;stroke-linejoin:round;stroke-miterlimit:8;stroke-dasharray:none;stroke-opacity:1"
         d="m 34854,86851.05 v 0 C 34854,85591.81 35874.812,84571 37134.047,84571 H 97061.95 c 604.71,0 1184.65,240.22 1612.24,667.81 427.59,427.59 667.81,1007.53 667.81,1612.24 v 9119.9 c 0,1259.24 -1020.81,2280.05 -2280.05,2280.05 H 37134.047 C 35874.812,98251 34854,97230.19 34854,95970.95 Z" /></g><g
       transform="matrix(0.7499985,0,0,-0.7499985,-46.140846,422.74648)"
       id="g4609"><g
         transform="translate(93.23308,223.72389)"
         id="g4611"><g
           id="g4613"><text
             id="text4617"
             style="font-variant:normal;font-weight:normal;font-size:18.66666603px;font-family:'Courier New';-inkscape-font-specification:CourierNew;writing-mode:lr-tb;fill:#000000;fill-opacity:1;fill-rule:nonzero;stroke:none"
             transform="translate(9,23.119991)"><tspan
               id="tspan4615"
               sodipodi:role="line"
               y="0"
               x="0 11.2 22.4 33.599998 44.799999 55.999996 67.199997 78.399994 89.599998 100.8">50 GOTO 20</tspan></text>
</g></g></g><g
       transform="matrix(0.7499985,0,0,-0.7499985,-46.140846,422.74648)"
       id="g4619" /><g
       id="g4621"
       transform="matrix(0.0019685,0,0,-0.0019685,-46.140846,422.74648)"><g
         id="g4623"><g
           id="g4625"><path
             inkscape:connector-curvature="0"
             id="path4627"
             style="fill:#000000;fill-opacity:0;fill-rule:evenodd;stroke:none"
             d="m 34854,105139.05 v 0 c 0,-1259.24 1020.812,-2280.05 2280.047,-2280.05 H 97061.95 c 604.71,0 1184.65,240.22 1612.24,667.81 427.59,427.59 667.81,1007.53 667.81,1612.24 v 9119.9 c 0,1259.24 -1020.81,2280.05 -2280.05,2280.05 H 37134.047 C 35874.812,116539 34854,115518.19 34854,114258.95 Z" /></g></g><path
         inkscape:connector-curvature="0"
         id="path4629"
         style="fill:none;stroke:#595959;stroke-width:381;stroke-linecap:butt;stroke-linejoin:round;stroke-miterlimit:8;stroke-dasharray:none;stroke-opacity:1"
         d="m 34854,105139.05 v 0 c 0,-1259.24 1020.812,-2280.05 2280.047,-2280.05 H 97061.95 c 604.71,0 1184.65,240.22 1612.24,667.81 427.59,427.59 667.81,1007.53 667.81,1612.24 v 9119.9 c 0,1259.24 -1020.81,2280.05 -2280.05,2280.05 H 37134.047 C 35874.812,116539 34854,115518.19 34854,114258.95 Z" /></g><g
       transform="matrix(0.7499985,0,0,-0.7499985,-46.140846,422.74648)"
       id="g4631"><g
         transform="translate(93.23308,271.72388)"
         id="g4633"><g
           id="g4635"><text
             id="text4639"
             style="font-variant:normal;font-weight:normal;font-size:18.66666603px;font-family:'Courier New';-inkscape-font-specification:CourierNew;writing-mode:lr-tb;fill:#000000;fill-opacity:1;fill-rule:nonzero;stroke:none"
             transform="translate(9,23.119991)"><tspan
               id="tspan4637"
               sodipodi:role="line"
               y="0"
               x="0 11.2 22.4 33.599998 44.799999 55.999996 67.199997 78.399994 89.599998 100.8 111.99999 123.2">60 PRINT &quot;A&quot;</tspan></text>
</g></g></g><g
       transform="matrix(0.7499985,0,0,-0.7499985,-46.140846,422.74648)"
       id="g4641" /><g
       id="g4643"
       transform="matrix(0.0019685,0,0,-0.0019685,-46.140846,422.74648)"><g
         id="g4645"><g
           id="g4647"><path
             inkscape:connector-curvature="0"
             id="path4649"
             style="fill:#000000;fill-opacity:0;fill-rule:evenodd;stroke:none"
             d="m 34854,123427.05 v 0 c 0,-1259.24 1020.812,-2280.05 2280.047,-2280.05 H 97061.95 c 604.71,0 1184.65,240.22 1612.24,667.81 427.59,427.59 667.81,1007.53 667.81,1612.24 v 9119.9 c 0,1259.24 -1020.81,2280.05 -2280.05,2280.05 H 37134.047 C 35874.812,134827 34854,133806.19 34854,132546.95 Z" /></g></g><path
         inkscape:connector-curvature="0"
         id="path4651"
         style="fill:none;stroke:#595959;stroke-width:381;stroke-linecap:butt;stroke-linejoin:round;stroke-miterlimit:8;stroke-dasharray:none;stroke-opacity:1"
         d="m 34854,123427.05 v 0 c 0,-1259.24 1020.812,-2280.05 2280.047,-2280.05 H 97061.95 c 604.71,0 1184.65,240.22 1612.24,667.81 427.59,427.59 667.81,1007.53 667.81,1612.24 v 9119.9 c 0,1259.24 -1020.81,2280.05 -2280.05,2280.05 H 37134.047 C 35874.812,134827 34854,133806.19 34854,132546.95 Z" /></g><g
       transform="matrix(0.7499985,0,0,-0.7499985,-46.140846,422.74648)"
       id="g4653"><g
         transform="translate(93.23308,319.72388)"
         id="g4655"><g
           id="g4657"><text
             id="text4661"
             style="font-variant:normal;font-weight:normal;font-size:18.66666603px;font-family:'Courier New';-inkscape-font-specification:CourierNew;writing-mode:lr-tb;fill:#000000;fill-opacity:1;fill-rule:nonzero;stroke:none"
             transform="translate(9,23.119991)"><tspan
               id="tspan4659"
               sodipodi:role="line"
               y="0"
               x="0 11.2 22.4 33.599998 44.799999 55.999996 67.199997 78.399994 89.599998 100.8">70 GOTO 40</tspan></text>
</g></g></g><g
       transform="matrix(0.7499985,0,0,-0.7499985,-46.140846,422.74648)"
       id="g4663" /><g
       id="g4665"
       transform="matrix(0.0019685,0,0,-0.0019685,-46.140846,422.74648)"><g
         id="g4667"><g
           id="g4669"><path
             inkscape:connector-curvature="0"
             id="path4671"
             style="fill:#000000;fill-opacity:0;fill-rule:evenodd;stroke:none"
             d="m 34854,141715.05 v 0 c 0,-1259.24 1020.812,-2280.05 2280.047,-2280.05 H 97061.95 c 604.71,0 1184.65,240.22 1612.24,667.81 427.59,427.59 667.81,1007.53 667.81,1612.24 v 9119.9 c 0,1259.24 -1020.81,2280.05 -2280.05,2280.05 H 37134.047 C 35874.812,153115 34854,152094.19 34854,150834.95 Z" /></g></g><path
         inkscape:connector-curvature="0"
         id="path4673"
         style="fill:none;stroke:#595959;stroke-width:381;stroke-linecap:butt;stroke-linejoin:round;stroke-miterlimit:8;stroke-dasharray:none;stroke-opacity:1"
         d="m 34854,141715.05 v 0 c 0,-1259.24 1020.812,-2280.05 2280.047,-2280.05 H 97061.95 c 604.71,0 1184.65,240.22 1612.24,667.81 427.59,427.59 667.81,1007.53 667.81,1612.24 v 9119.9 c 0,1259.24 -1020.81,2280.05 -2280.05,2280.05 H 37134.047 C 35874.812,153115 34854,152094.19 34854,150834.95 Z" /></g><g
       transform="matrix(0.7499985,0,0,-0.7499985,-46.140846,422.74648)"
       id="g4675"><g
         transform="translate(93.23308,367.72388)"
         id="g4677"><g
           id="g4679"><text
             id="text4683"
             style="font-variant:normal;font-weight:normal;font-size:18.66666603px;font-family:'Courier New';-inkscape-font-specification:CourierNew;writing-mode:lr-tb;fill:#000000;fill-opacity:1;fill-rule:nonzero;stroke:none"
             transform="translate(9,23.119991)"><tspan
               id="tspan4681"
               sodipodi:role="line"
               y="0"
               x="0 11.2 22.4 33.599998 44.799999 55.999996 67.199997 78.399994 89.599998 100.8 111.99999">80 PRINT &quot;&quot;</tspan></text>
</g></g></g><g
       transform="matrix(0.7499985,0,0,-0.7499985,-46.140846,422.74648)"
       id="g4685" /><g
       id="g4687"
       transform="matrix(0.0019685,0,0,-0.0019685,-46.140846,422.74648)"><g
         id="g4689"><g
           id="g4691"><path
             inkscape:connector-curvature="0"
             id="path4693"
             style="fill:#000000;fill-opacity:0;fill-rule:evenodd;stroke:none"
             d="m 99342,18259 c 4762.5,0 9522,22860 9525,45720 3,22860 -4750.5,45720 -9501,45720" /></g></g><path
         inkscape:connector-curvature="0"
         id="path4695"
         style="fill:none;stroke:#595959;stroke-width:381;stroke-linecap:butt;stroke-linejoin:round;stroke-miterlimit:8;stroke-dasharray:none;stroke-opacity:1"
         d="m 99342,18259 c 4762.5,0 9522,22860 9525,45720 1.5,11430 -1186.12,22860 -2967.94,31432.5 -890.9,4286.25 -1930.36,7858.13 -3043.99,10358.44 -278.41,625.08 -561.45,1183.19 -847.97,1668.73 -143.26,242.77 -287.39,467.42 -432.24,673.22 -72.42,102.9 -145.03,201.09 -217.8,294.49 l -57.97,72.39" /><path
         inkscape:connector-curvature="0"
         id="path4697"
         style="fill:#595959;fill-opacity:1;fill-rule:evenodd;stroke:#595959;stroke-width:381;stroke-linecap:butt;stroke-linejoin:miter;stroke-miterlimit:10;stroke-dasharray:none;stroke-opacity:1"
         d="m 100963.18,107946.62 -1126.18,1455.08 1798.01,-390.76 z" /></g><g
       id="g4699"
       transform="matrix(0.0019685,0,0,-0.0019685,-46.140846,422.74648)"><g
         id="g4701"><g
           id="g4703"><path
             inkscape:connector-curvature="0"
             id="path4705"
             style="fill:#000000;fill-opacity:0;fill-rule:evenodd;stroke:none"
             d="m 34854,109699 c -4762.5,0 -9528,4572 -9525,9144 3,4572 4774.5,9144 9549,9144" /></g></g><path
         inkscape:connector-curvature="0"
         id="path4707"
         style="fill:none;stroke:#595959;stroke-width:381;stroke-linecap:butt;stroke-linejoin:round;stroke-miterlimit:8;stroke-dasharray:none;stroke-opacity:1"
         d="m 34854,109699 c -4762.5,0 -9528,4572 -9525,9144 1.5,2286 1195.125,4572 2985.188,6286.5 895.031,857.25 1939.172,1571.63 3057.96,2071.69 279.698,125.01 564.061,236.64 851.926,333.75 71.966,24.27 144.151,47.65 216.537,70.09 l 175.332,51.98" /><path
         inkscape:connector-curvature="0"
         id="path4709"
         style="fill:#595959;fill-opacity:1;fill-rule:evenodd;stroke:#595959;stroke-width:381;stroke-linecap:butt;stroke-linejoin:miter;stroke-miterlimit:10;stroke-dasharray:none;stroke-opacity:1"
         d="m 32525.1,128279.73 1801.748,-373.14 -1620.061,-872.3 z" /></g><g
       id="g4711"
       transform="matrix(0.0019685,0,0,-0.0019685,-46.140846,422.74648)"><g
         id="g4713"><g
           id="g4715"><path
             inkscape:connector-curvature="0"
             id="path4717"
             style="fill:#000000;fill-opacity:0;fill-rule:evenodd;stroke:none"
             d="m 99342,127987 c 11400,0 22797,-13716 22800,-27432 3,-13716 -11388,-27432 -22776,-27432" /></g></g><path
         inkscape:connector-curvature="0"
         id="path4719"
         style="fill:none;stroke:#595959;stroke-width:381;stroke-linecap:butt;stroke-linejoin:round;stroke-miterlimit:8;stroke-dasharray:none;stroke-opacity:1"
         d="m 99342,127987 c 11400,0 22797,-13716 22800,-27432 1.5,-6858 -2845.5,-13716 -7116.37,-18859.5 -2135.44,-2571.75 -4626.85,-4714.875 -7296.15,-6215.06 -1334.64,-750.1 -2713.76,-1339.456 -4115.1,-1741.29 -350.33,-100.46 -702.05,-189.2 -1054.82,-265.8 -176.38,-38.3 -353.02,-73.56 -529.88,-105.74 -88.42,-16.094 -176.91,-31.41 -265.44,-45.946 l -119.35,-18.539" /><path
         inkscape:connector-curvature="0"
         id="path4721"
         style="fill:#595959;fill-opacity:1;fill-rule:evenodd;stroke:#595959;stroke-width:381;stroke-linecap:butt;stroke-linejoin:miter;stroke-miterlimit:10;stroke-dasharray:none;stroke-opacity:1"
         d="m 101694.48,72675.77 -1773.23,491.12 1674.06,763.59 z" /></g><g
       id="g4723"
       transform="matrix(0.0019685,0,0,-0.0019685,-46.140846,422.74648)"><g
         id="g4725"><g
           id="g4727"><path
             inkscape:connector-curvature="0"
             id="path4729"
             style="fill:#000000;fill-opacity:0;fill-rule:evenodd;stroke:none"
             d="m 34854,73123 c -4762.5,0 -9528,4572 -9525,9144 3,4572 4774.5,9144 9549,9144" /></g></g><path
         inkscape:connector-curvature="0"
         id="path4731"
         style="fill:none;stroke:#595959;stroke-width:381;stroke-linecap:butt;stroke-linejoin:round;stroke-miterlimit:8;stroke-dasharray:none;stroke-opacity:1"
         d="m 34854,73123 c -4762.5,0 -9528,4572 -9525,9144 1.5,2286 1195.125,4572 2985.188,6286.5 895.031,857.25 1939.172,1571.625 3057.96,2071.69 279.698,125.01 564.061,236.64 851.926,333.75 71.966,24.27 144.151,47.646 216.537,70.09 l 175.332,51.98" /><path
         inkscape:connector-curvature="0"
         id="path4733"
         style="fill:#595959;fill-opacity:1;fill-rule:evenodd;stroke:#595959;stroke-width:381;stroke-linecap:butt;stroke-linejoin:miter;stroke-miterlimit:10;stroke-dasharray:none;stroke-opacity:1"
         d="m 32525.1,91703.73 1801.748,-373.14 -1620.061,-872.3 z" /></g><g
       id="g4735"
       transform="matrix(0.0019685,0,0,-0.0019685,-46.140846,422.74648)"><g
         id="g4737"><g
           id="g4739"><path
             inkscape:connector-curvature="0"
             id="path4741"
             style="fill:#000000;fill-opacity:0;fill-rule:evenodd;stroke:none"
             d="m 99342,91411 c 23288,0 46573,-13716 46576,-27432 3,-13716 -23276,-27432 -46552,-27432" /></g></g><path
         inkscape:connector-curvature="0"
         id="path4743"
         style="fill:none;stroke:#595959;stroke-width:381;stroke-linecap:butt;stroke-linejoin:round;stroke-miterlimit:8;stroke-dasharray:none;stroke-opacity:1"
         d="m 99342,91411 c 23288,0 46573,-13716 46576,-27432 1.5,-6858 -5817.5,-13716 -14546.38,-18859.5 -4364.43,-2571.75 -9456.34,-4714.875 -14911.89,-6215.062 -2727.77,-750.094 -5546.45,-1339.454 -8410.57,-1741.288 -1432.06,-200.92 -2875.47,-354.955 -4324.56,-458.763 -362.27,-25.953 -724.9,-48.767 -1087.79,-68.387 -181.45,-9.81 -362.96,-18.824 -544.53,-27.03 l -440.7,-17.962" /><path
         inkscape:connector-curvature="0"
         id="path4745"
         style="fill:#595959;fill-opacity:1;fill-rule:evenodd;stroke:#595959;stroke-width:381;stroke-linecap:butt;stroke-linejoin:miter;stroke-miterlimit:10;stroke-dasharray:none;stroke-opacity:1"
         d="m 101663.7,35961.816 -1740.82,595.907 1716.58,662.48 z" /></g><g
       id="g4747"
       transform="matrix(0.0019685,0,0,-0.0019685,-46.140846,422.74648)"><g
         id="g4749"><g
           id="g4751"><path
             inkscape:connector-curvature="0"
             id="path4753"
             style="fill:#000000;fill-opacity:0;fill-rule:evenodd;stroke:none"
             d="m 34854,36547 c -4762.5,0 -9528,4572 -9525,9144 3,4572 4774.5,9144 9549,9144" /></g></g><path
         inkscape:connector-curvature="0"
         id="path4755"
         style="fill:none;stroke:#595959;stroke-width:381;stroke-linecap:butt;stroke-linejoin:round;stroke-miterlimit:8;stroke-dasharray:none;stroke-opacity:1"
         d="m 34854,36547 c -4762.5,0 -9528,4572 -9525,9144 1.5,2286 1195.125,4572 2985.188,6286.5 895.031,857.25 1939.172,1571.625 3057.96,2071.688 279.698,125.015 564.061,236.636 851.926,333.746 71.966,24.276 144.151,47.648 216.537,70.093 l 175.332,51.977" /><path
         inkscape:connector-curvature="0"
         id="path4757"
         style="fill:#595959;fill-opacity:1;fill-rule:evenodd;stroke:#595959;stroke-width:381;stroke-linecap:butt;stroke-linejoin:miter;stroke-miterlimit:10;stroke-dasharray:none;stroke-opacity:1"
         d="m 32525.1,55127.723 1801.748,-373.125 -1620.061,-872.313 z" /></g><g
       id="g4759"
       transform="matrix(0.0019685,0,0,-0.0019685,-46.140846,422.74648)"><g
         id="g4761"><g
           id="g4763"><path
             inkscape:connector-curvature="0"
             id="path4765"
             style="fill:#000000;fill-opacity:0;fill-rule:evenodd;stroke:none"
             d="m 99342,54835 c 37944.5,0 75886,22860 75889,45720 3,22860 -37932.5,45720 -75865,45720" /></g></g><path
         inkscape:connector-curvature="0"
         id="path4767"
         style="fill:none;stroke:#595959;stroke-width:381;stroke-linecap:butt;stroke-linejoin:round;stroke-miterlimit:8;stroke-dasharray:none;stroke-opacity:1"
         d="m 99342,54835 c 37944.5,0 75886,22860 75889,45720 1.5,11430 -9481.62,22860 -23706.69,31432.5 -7112.53,4286.25 -15410.54,7858.12 -24301.21,10358.44 -4445.33,1250.16 -9038.83,2232.42 -13706.37,2902.16 -2333.79,334.85 -4686.07,591.57 -7047.61,764.59 -1180.78,86.51 -2363.86,152.09 -3548.1,196.03 -296.06,11 -592.19,20.62 -888.37,28.9 l -380.81,9.76" /><path
         inkscape:connector-curvature="0"
         id="path4769"
         style="fill:#595959;fill-opacity:1;fill-rule:evenodd;stroke:#595959;stroke-width:381;stroke-linecap:butt;stroke-linejoin:miter;stroke-miterlimit:10;stroke-dasharray:none;stroke-opacity:1"
         d="m 101644.23,145618.12 -1721.285,650.15 1736.495,608.37 z" /></g><g
       id="g4771"
       transform="matrix(0.0019685,0,0,-0.0019685,-46.140846,422.74648)"><g
         id="g4773"><g
           id="g4775"><path
             inkscape:connector-curvature="0"
             id="path4777"
             style="fill:#000000;fill-opacity:0;fill-rule:evenodd;stroke:none"
             d="m 99341.5,9091 h 16692 v 16008 h -16692 z" /></g></g></g><g
       transform="matrix(0.7499985,0,0,-0.7499985,-46.140846,422.74648)"
       id="g4779"><g
         transform="translate(260.73883,23.860893)"
         id="g4781"><g
           id="g4783"><text
             id="text4787"
             style="font-variant:normal;font-weight:normal;font-size:18.66666603px;font-family:Arial;-inkscape-font-specification:ArialMT;writing-mode:lr-tb;fill:#000000;fill-opacity:1;fill-rule:nonzero;stroke:none"
             transform="translate(9,26.919998)"><tspan
               id="tspan4785"
               y="0"
               x="0">1</tspan></text>
</g></g></g><g
       transform="matrix(0.7499985,0,0,-0.7499985,-46.140846,422.74648)"
       id="g4789" /><g
       id="g4791"
       transform="matrix(0.0019685,0,0,-0.0019685,-46.140846,422.74648)"><g
         id="g4793"><g
           id="g4795"><path
             inkscape:connector-curvature="0"
             id="path4797"
             style="fill:#000000;fill-opacity:0;fill-rule:evenodd;stroke:none"
             d="m 20227,101695 h 12516 v 16008 H 20227 Z" /></g></g></g><g
       transform="matrix(0.7499985,0,0,-0.7499985,-46.140846,422.74648)"
       id="g4799"><g
         transform="translate(53.089237,266.91602)"
         id="g4801"><g
           id="g4803"><text
             id="text4807"
             style="font-variant:normal;font-weight:normal;font-size:18.66666603px;font-family:Arial;-inkscape-font-specification:ArialMT;writing-mode:lr-tb;fill:#000000;fill-opacity:1;fill-rule:nonzero;stroke:none"
             transform="translate(9,26.919998)"><tspan
               id="tspan4805"
               y="0"
               x="0">2</tspan></text>
</g></g></g><g
       transform="matrix(0.7499985,0,0,-0.7499985,-46.140846,422.74648)"
       id="g4809" /><g
       id="g4811"
       transform="matrix(0.0019685,0,0,-0.0019685,-46.140846,422.74648)"><g
         id="g4813"><g
           id="g4815"><path
             inkscape:connector-curvature="0"
             id="path4817"
             style="fill:#000000;fill-opacity:0;fill-rule:evenodd;stroke:none"
             d="m 98220,123427 h 18936 v 16008 H 98220 Z" /></g></g></g><g
       transform="matrix(0.7499985,0,0,-0.7499985,-46.140846,422.74648)"
       id="g4819"><g
         transform="translate(257.7953,323.95538)"
         id="g4821"><g
           id="g4823"><text
             id="text4827"
             style="font-variant:normal;font-weight:normal;font-size:18.66666603px;font-family:Arial;-inkscape-font-specification:ArialMT;writing-mode:lr-tb;fill:#000000;fill-opacity:1;fill-rule:nonzero;stroke:none"
             transform="translate(9,26.919998)"><tspan
               id="tspan4825"
               y="0"
               x="0">3</tspan></text>
</g></g></g><g
       transform="matrix(0.7499985,0,0,-0.7499985,-46.140846,422.74648)"
       id="g4829" /><g
       id="g4831"
       transform="matrix(0.0019685,0,0,-0.0019685,-46.140846,422.74648)"><g
         id="g4833"><g
           id="g4835"><path
             inkscape:connector-curvature="0"
             id="path4837"
             style="fill:#000000;fill-opacity:0;fill-rule:evenodd;stroke:none"
             d="M 23845,61699 H 36361 V 77707 H 23845 Z" /></g></g></g><g
       transform="matrix(0.7499985,0,0,-0.7499985,-46.140846,422.74648)"
       id="g4839"><g
         transform="translate(62.5853,161.93964)"
         id="g4841"><g
           id="g4843"><text
             id="text4847"
             style="font-variant:normal;font-weight:normal;font-size:18.66666603px;font-family:Arial;-inkscape-font-specification:ArialMT;writing-mode:lr-tb;fill:#000000;fill-opacity:1;fill-rule:nonzero;stroke:none"
             transform="translate(9,26.919998)"><tspan
               id="tspan4845"
               y="0"
               x="0">4</tspan></text>
</g></g></g><g
       transform="matrix(0.7499985,0,0,-0.7499985,-46.140846,422.74648)"
       id="g4849" /><g
       id="g4851"
       transform="matrix(0.0019685,0,0,-0.0019685,-46.140846,422.74648)"><g
         id="g4853"><g
           id="g4855"><path
             inkscape:connector-curvature="0"
             id="path4857"
             style="fill:#000000;fill-opacity:0;fill-rule:evenodd;stroke:none"
             d="m 96936,79963 h 32100 V 95971 H 96936 Z" /></g></g></g><g
       transform="matrix(0.7499985,0,0,-0.7499985,-46.140846,422.74648)"
       id="g4859"><g
         transform="translate(254.4252,209.87665)"
         id="g4861"><g
           id="g4863"><text
             id="text4867"
             style="font-variant:normal;font-weight:normal;font-size:18.66666603px;font-family:Arial;-inkscape-font-specification:ArialMT;writing-mode:lr-tb;fill:#000000;fill-opacity:1;fill-rule:nonzero;stroke:none"
             transform="translate(9,26.919998)"><tspan
               id="tspan4865"
               y="0"
               x="0">5</tspan></text>
</g></g></g><g
       transform="matrix(0.7499985,0,0,-0.7499985,-46.140846,422.74648)"
       id="g4869" /><g
       id="g4871"
       transform="matrix(0.0019685,0,0,-0.0019685,-46.140846,422.74648)"><g
         id="g4873"><g
           id="g4875"><path
             inkscape:connector-curvature="0"
             id="path4877"
             style="fill:#000000;fill-opacity:0;fill-rule:evenodd;stroke:none"
             d="M 21757,27379 H 38449 V 43387 H 21757 Z" /></g></g></g><g
       transform="matrix(0.7499985,0,0,-0.7499985,-46.140846,422.74648)"
       id="g4879"><g
         transform="translate(57.10499,71.86089)"
         id="g4881"><g
           id="g4883"><text
             id="text4887"
             style="font-variant:normal;font-weight:normal;font-size:18.66666603px;font-family:Arial;-inkscape-font-specification:ArialMT;writing-mode:lr-tb;fill:#000000;fill-opacity:1;fill-rule:nonzero;stroke:none"
             transform="translate(9,26.919998)"><tspan
               id="tspan4885"
               y="0"
               x="0">6</tspan></text>
</g></g></g><g
       transform="matrix(0.7499985,0,0,-0.7499985,-46.140846,422.74648)"
       id="g4889" /><g
       id="g4891"
       transform="matrix(0.0019685,0,0,-0.0019685,-46.140846,422.74648)"><g
         id="g4893"><g
           id="g4895"><path
             inkscape:connector-curvature="0"
             id="path4897"
             style="fill:#000000;fill-opacity:0;fill-rule:evenodd;stroke:none"
             d="m 96936,43387 h 12516 V 59395 H 96936 Z" /></g></g></g><g
       transform="matrix(0.7499985,0,0,-0.7499985,-46.140846,422.74648)"
       id="g4899"><g
         transform="translate(254.4252,113.87664)"
         id="g4901"><g
           id="g4903"><text
             id="text4907"
             style="font-variant:normal;font-weight:normal;font-size:18.66666603px;font-family:Arial;-inkscape-font-specification:ArialMT;writing-mode:lr-tb;fill:#000000;fill-opacity:1;fill-rule:nonzero;stroke:none"
             transform="translate(9,26.919998)"><tspan
               id="tspan4905"
               y="0"
               x="0">7</tspan></text>
</g></g></g><g
       transform="matrix(0.7499985,0,0,-0.7499985,-46.140846,422.74648)"
       id="g4909" /></g></svg>